<?xml version="1.0" standalone="no"?>
<!DOCTYPE svg PUBLIC "-//W3C//DTD SVG 20010904//EN"
 "http://www.w3.org/TR/2001/REC-SVG-20010904/DTD/svg10.dtd">
<svg version="1.0" xmlns="http://www.w3.org/2000/svg"
 width="1280.000000pt" height="1058.000000pt" viewBox="0 0 1280.000000 1058.000000"
 preserveAspectRatio="xMidYMid meet">
<metadata>
Created by potrace 1.15, written by Peter Selinger 2001-2017
</metadata>
<g transform="translate(0.000000,1058.000000) scale(0.100000,-0.100000)"
fill="#ffffff" stroke="none">
<path d="M5825 10573 c-87 -8 -260 -45 -343 -74 -651 -230 -1027 -897 -1134
-2014 -16 -175 -17 -823 0 -1040 12 -153 11 -194 -6 -404 -18 -219 -20 -236
-41 -252 -36 -30 -88 -39 -216 -39 -453 -1 -1351 -113 -1970 -246 -893 -192
-1460 -435 -1708 -729 -100 -119 -304 -563 -373 -810 -27 -99 -40 -262 -21
-281 11 -12 943 185 1542 326 1170 275 1928 513 2158 676 26 19 49 34 52 34 7
0 -43 -128 -94 -240 -226 -491 -424 -1539 -529 -2795 -6 -82 -9 -90 -27 -87
-89 13 -245 12 -287 -1 -36 -11 -48 -12 -48 -3 0 21 -63 74 -120 100 -112 51
-269 57 -445 16 -442 -103 -587 -279 -500 -608 l27 -101 -26 -55 c-21 -45 -26
-69 -26 -136 0 -188 124 -407 385 -681 75 -78 133 -150 155 -189 103 -187 402
-405 772 -564 351 -149 706 -229 1023 -230 211 -1 299 15 390 70 32 19 65 32
74 30 75 -22 588 -86 851 -106 415 -31 536 -34 1135 -34 589 0 844 7 1259 35
l158 11 42 -40 c51 -49 86 -67 173 -89 87 -21 378 -24 508 -5 694 104 1389
465 1565 812 12 25 79 104 149 175 198 206 317 389 361 560 26 96 21 163 -16
246 -24 54 -25 59 -11 100 46 134 48 289 7 375 -37 75 -108 140 -203 184 -87
41 -239 92 -324 109 -208 42 -405 10 -502 -82 -26 -25 -32 -28 -27 -12 16 54
37 236 42 375 24 587 -176 1544 -521 2494 -25 70 -44 130 -42 133 3 2 38 -13
79 -35 381 -207 1602 -539 3253 -883 297 -62 355 -73 361 -66 3 3 8 29 11 59
15 143 -92 461 -277 828 -44 85 -98 178 -121 205 -264 309 -852 557 -1780 749
-616 128 -1380 223 -1854 230 -161 2 -196 5 -229 21 -83 40 -140 124 -169 251
-13 55 -13 62 4 82 35 44 44 124 44 402 -1 269 -7 359 -51 735 -44 374 -135
974 -184 1215 -71 349 -309 684 -648 914 -108 73 -334 183 -472 231 -221 76
-474 124 -760 145 -136 9 -386 11 -475 3z"/>
</g>
</svg>
